<?xml version="1.0" standalone="no"?>
<!DOCTYPE svg PUBLIC "-//W3C//DTD SVG 20010904//EN"
 "http://www.w3.org/TR/2001/REC-SVG-20010904/DTD/svg10.dtd">
<svg version="1.0" xmlns="http://www.w3.org/2000/svg"
 width="320.000000pt" height="320.000000pt" viewBox="0 0 320.000000 320.000000"
 preserveAspectRatio="xMidYMid meet">

<g transform="translate(0.000000,320.000000) scale(0.100000,-0.100000)"
fill="#000000" stroke="none">
<path d="M0 1600 l0 -1600 1600 0 1600 0 0 1600 0 1600 -1600 0 -1600 0 0
-1600z m1793 822 l147 -137 0 -421 0 -421 -147 -136 -148 -137 -52 0 -53 0 0
-88 0 -88 39 -37 39 -37 171 0 171 0 45 41 c24 23 44 48 43 58 -1 9 0 220 0
469 l2 452 140 0 140 0 0 -519 0 -519 -144 -136 -144 -136 -252 0 -251 0 -82
77 c-45 43 -106 100 -135 128 -29 27 -58 51 -63 53 -5 2 -9 66 -9 143 l0 139
-56 0 -56 0 -143 132 -143 133 -1 426 -1 427 121 113 c67 63 133 124 146 137
24 22 28 22 276 22 l252 -1 148 -137z m-611 -1329 c31 -28 18 -83 -21 -83 -11
0 -8 5 7 16 27 19 26 57 0 62 -10 2 -18 -1 -18 -7 0 -6 7 -8 15 -5 17 7 18 3
9 -21 -5 -13 -8 -14 -15 -3 -7 10 -9 10 -10 -2 -1 -8 -5 -1 -9 15 -6 26 -8 28
-15 11 -5 -11 -3 -27 5 -40 12 -19 12 -20 -3 -7 -22 17 -22 39 0 63 20 22 31
23 55 1z"/>
<path d="M1181 2234 l-41 -36 0 -332 0 -332 38 -37 c72 -70 72 -69 72 203 l0
241 143 -3 142 -3 3 -237 c2 -181 5 -238 15 -238 6 0 31 19 55 41 l42 41 0
322 0 322 -43 42 -43 42 -171 0 -170 0 -42 -36z"/>
</g>
</svg>
